<?xml version="1.0" encoding="UTF-8" standalone="no"?>
<svg width="350px" height="350px" viewBox="0 0 350 350" version="1.1" xmlns="http://www.w3.org/2000/svg" xmlns:xlink="http://www.w3.org/1999/xlink" xmlns:sketch="http://www.bohemiancoding.com/sketch/ns">
    <!-- Generator: Sketch 3.0.2 (7799) - http://www.bohemiancoding.com/sketch -->
    <title>1_blue_transparent</title>
    <description>Created with Sketch.</description>
    <defs></defs>
    <g id="Page-1" stroke="none" stroke-width="1" fill="none" fill-rule="evenodd" sketch:type="MSPage">
        <g id="blue" sketch:type="MSLayerGroup" fill="#5E9FCB">
            <path d="M150.899155,261.822 C127.72713,261.822 106.158674,255.010097 88,243.334855 C91.2100662,243.714883 94.4764622,243.909299 97.7882146,243.909299 C117.012034,243.909299 134.704708,237.330696 148.74765,226.294459 C130.792348,225.962117 115.638904,214.065314 110.417791,197.716747 C112.922638,198.197285 115.493325,198.454794 118.137167,198.454794 C121.879805,198.454794 125.504664,197.952247 128.948096,197.011713 C110.176378,193.231969 96.0332126,176.600214 96.0332126,156.66265 C96.0332126,156.48951 96.0332126,156.317103 96.0361388,156.14543 C101.568894,159.227477 107.895388,161.078466 114.622042,161.291957 C103.612129,153.912945 96.3675336,141.317711 96.3675336,127.041693 C96.3675336,119.500546 98.3910165,112.431867 101.922967,106.354343 C122.160723,131.249887 152.395186,147.632202 186.497385,149.3482 C185.798017,146.336583 185.434434,143.195844 185.434434,139.970737 C185.434434,117.246052 203.806723,98.822 226.468122,98.822 C238.269578,98.822 248.933465,103.819597 256.418742,111.817072 C265.765097,109.971218 274.546692,106.546559 282.47456,101.831416 C279.410805,111.439977 272.905081,119.504214 264.432935,124.597185 C272.733165,123.602361 280.641282,121.390418 288,118.117623 C282.498701,126.369673 275.541607,133.617362 267.52522,139.419035 C267.604228,141.183453 267.643732,142.958143 267.643732,144.74237 C267.643732,199.119478 226.372289,261.822 150.899155,261.822" id="Fill-1" sketch:type="MSShapeGroup"></path>
        </g>
    </g>
</svg>